# Blender v2.92.0 OBJ File: ''
# www.blender.org
mtllib bullet.mtl
o Sphere
v 0.000000 -0.060000 -0.103923
v 0.042426 0.103923 -0.042426
v 0.073485 0.060000 -0.073485
v 0.084853 -0.000000 -0.084853
v 0.073485 -0.060000 -0.073485
v 0.042426 -0.103923 -0.042426
v -0.000000 0.120000 -0.000000
v 0.060000 0.103923 -0.000000
v 0.103923 0.060000 -0.000000
v 0.120000 -0.000000 -0.000000
v 0.103923 -0.060000 -0.000000
v 0.060000 -0.103923 -0.000000
v 0.000000 -0.120000 -0.000000
v -0.060000 0.103923 -0.000000
v -0.103923 0.060000 -0.000000
v -0.120000 -0.000000 -0.000000
v -0.103923 -0.060000 -0.000000
v -0.060000 -0.103923 -0.000000
v -0.042426 0.103923 -0.042426
v -0.073485 0.060000 -0.073485
v -0.084853 -0.000000 -0.084853
v -0.073485 -0.060000 -0.073485
v -0.042426 -0.103923 -0.042426
v -0.000000 0.103923 -0.060000
v 0.000000 0.060000 -0.103923
v 0.000000 -0.000000 -0.120000
v -0.000000 -0.103923 -0.060000
v -0.000000 0.120000 0.120000
v 0.060000 0.103923 0.120000
v 0.103923 0.060000 0.120000
v 0.120000 -0.000000 0.120000
v 0.103923 -0.060000 0.120000
v 0.060000 -0.103923 0.120000
v 0.000000 -0.120000 0.120000
v -0.060000 0.103923 0.120000
v -0.103923 0.060000 0.120000
v -0.120000 -0.000000 0.120000
v -0.103923 -0.060000 0.120000
v -0.060000 -0.103923 0.120000
vt 0.638368 0.204797
vt 0.713720 0.204591
vt 0.705525 0.299809
vt 0.640932 0.301245
vt 0.789625 0.240573
vt 0.852751 0.294448
vt 0.775032 0.297299
vt 0.423984 0.294163
vt 0.489305 0.241366
vt 0.503449 0.297124
vt 0.563015 0.205004
vt 0.574086 0.299466
vt 0.484435 0.354070
vt 0.643822 0.409488
vt 0.559874 0.396373
vt 0.793075 0.350733
vt 0.723892 0.392003
vt 0.483660 0.058862
vt 0.552843 0.017592
vt 0.571210 0.109786
vt 0.501703 0.112296
vt 0.632913 0.000107
vt 0.716861 0.013222
vt 0.702649 0.110129
vt 0.635804 0.108350
vt 0.792301 0.055525
vt 0.852751 0.115431
vt 0.773286 0.112471
vt 0.423984 0.115147
vt 0.487110 0.169021
vt 0.787430 0.168229
vt 0.423769 0.850292
vt 0.423769 0.925092
vt 0.279266 0.925092
vt 0.279266 0.850292
vt 0.423770 0.251887
vt 0.423770 0.326688
vt 0.279266 0.326688
vt 0.279266 0.251887
vt 0.423770 0.551089
vt 0.423770 0.625890
vt 0.279266 0.625890
vt 0.279266 0.551089
vt 0.423769 0.999893
vt 0.279265 0.999893
vt 0.423770 0.775491
vt 0.279266 0.775491
vt 0.423770 0.401488
vt 0.279266 0.401488
vt 0.423770 0.476289
vt 0.279266 0.476289
vt 0.423770 0.102286
vt 0.423770 0.177087
vt 0.279266 0.177087
vt 0.279266 0.102286
vt 0.423770 0.700691
vt 0.279266 0.700690
vt 0.102286 0.000107
vt 0.177087 0.000107
vt 0.241866 0.037507
vt 0.241866 0.241866
vt 0.177087 0.279266
vt 0.102286 0.279266
vt 0.037507 0.241866
vt 0.000107 0.177087
vt 0.000107 0.102286
vt 0.037507 0.037507
vn 0.3715 0.2403 -0.8968
vn 0.1066 0.9604 -0.2573
vn 0.1066 -0.9604 -0.2573
vn 0.3715 -0.2403 -0.8968
vn 0.2811 0.6786 -0.6786
vn 0.2811 -0.6786 -0.6786
vn 0.2573 -0.9604 -0.1066
vn 0.8968 -0.2403 -0.3715
vn 0.6786 0.6786 -0.2811
vn 0.6786 -0.6786 -0.2811
vn 0.8968 0.2403 -0.3715
vn 0.2573 0.9604 -0.1066
vn -0.6786 -0.6786 -0.2811
vn -0.8968 0.2403 -0.3715
vn -0.2573 0.9604 -0.1066
vn -0.2573 -0.9604 -0.1066
vn -0.8968 -0.2403 -0.3715
vn -0.6786 0.6786 -0.2811
vn -0.2811 -0.6786 -0.6786
vn -0.3715 0.2403 -0.8968
vn -0.1066 0.9604 -0.2573
vn -0.1066 -0.9604 -0.2573
vn -0.3715 -0.2403 -0.8968
vn -0.2811 0.6786 -0.6786
vn -0.2588 0.9659 0.0000
vn -0.7071 -0.7071 0.0000
vn 0.9659 -0.2588 0.0000
vn -0.7071 0.7071 0.0000
vn 0.2588 0.9659 0.0000
vn -0.2588 -0.9659 0.0000
vn 0.7071 -0.7071 0.0000
vn -0.9659 0.2588 0.0000
vn 0.7071 0.7071 0.0000
vn 0.2588 -0.9659 0.0000
vn -0.9659 -0.2588 0.0000
vn 0.9659 0.2588 0.0000
vn -0.0000 0.0000 1.0000
usemtl None
s off
f 26/1/1 25/2/1 3/3/1 4/4/1
f 24/5/2 7/6/2 2/7/2
f 13/8/3 27/9/3 6/10/3
f 1/11/4 26/1/4 4/4/4 5/12/4
f 25/2/5 24/5/5 2/7/5 3/3/5
f 27/9/6 1/11/6 5/12/6 6/10/6
f 13/8/7 6/10/7 12/13/7
f 5/12/8 4/4/8 10/14/8 11/15/8
f 3/3/9 2/7/9 8/16/9 9/17/9
f 6/10/10 5/12/10 11/15/10 12/13/10
f 4/4/11 3/3/11 9/17/11 10/14/11
f 2/7/12 7/6/12 8/16/12
f 18/18/13 17/19/13 22/20/13 23/21/13
f 16/22/14 15/23/14 20/24/14 21/25/14
f 14/26/15 7/27/15 19/28/15
f 13/29/16 18/18/16 23/21/16
f 17/19/17 16/22/17 21/25/17 22/20/17
f 15/23/18 14/26/18 19/28/18 20/24/18
f 23/21/19 22/20/19 1/11/19 27/30/19
f 21/25/20 20/24/20 25/2/20 26/1/20
f 19/28/21 7/27/21 24/31/21
f 13/29/22 23/21/22 27/30/22
f 22/20/23 21/25/23 26/1/23 1/11/23
f 20/24/24 19/28/24 24/31/24 25/2/24
f 7/32/25 14/33/25 35/34/25 28/35/25
f 17/36/26 18/37/26 39/38/26 38/39/26
f 11/40/27 10/41/27 31/42/27 32/43/27
f 14/33/28 15/44/28 36/45/28 35/34/28
f 8/46/29 7/32/29 28/35/29 29/47/29
f 18/37/30 13/48/30 34/49/30 39/38/30
f 12/50/31 11/40/31 32/43/31 33/51/31
f 15/52/32 16/53/32 37/54/32 36/55/32
f 9/56/33 8/46/33 29/47/33 30/57/33
f 13/48/34 12/50/34 33/51/34 34/49/34
f 16/53/35 17/36/35 38/39/35 37/54/35
f 10/41/36 9/56/36 30/57/36 31/42/36
f 29/58/37 28/59/37 35/60/37 36/55/37 37/54/37 38/61/37 39/62/37 34/63/37 33/64/37 32/65/37 31/66/37 30/67/37
